<mxfile host="app.diagrams.net" modified="2023-09-28T10:27:32.846Z" agent="Mozilla/5.0 (Windows NT 10.0; Win64; x64; rv:109.0) Gecko/20100101 Firefox/117.0" etag="-IVHXANKkUbHVPLMqn9y" version="21.2.3" type="device">
  <diagram name="Страница 1" id="cUjjUj1EhB7zKsQsvFTo">
    <mxGraphModel dx="1114" dy="602" grid="1" gridSize="10" guides="1" tooltips="1" connect="1" arrows="1" fold="1" page="1" pageScale="1" pageWidth="827" pageHeight="1169" math="0" shadow="0">
      <root>
        <mxCell id="0" />
        <mxCell id="1" parent="0" />
        <mxCell id="s-OvUWTf_hIzMa2GPE4v-1" value="Login" style="rounded=1;whiteSpace=wrap;html=1;" vertex="1" parent="1">
          <mxGeometry x="230" y="70" width="120" height="60" as="geometry" />
        </mxCell>
        <mxCell id="s-OvUWTf_hIzMa2GPE4v-2" value="Database" style="rounded=1;whiteSpace=wrap;html=1;" vertex="1" parent="1">
          <mxGeometry x="420" y="70" width="120" height="60" as="geometry" />
        </mxCell>
        <mxCell id="s-OvUWTf_hIzMa2GPE4v-3" value="Main page" style="rounded=1;whiteSpace=wrap;html=1;" vertex="1" parent="1">
          <mxGeometry x="610" y="70" width="120" height="60" as="geometry" />
        </mxCell>
        <mxCell id="s-OvUWTf_hIzMa2GPE4v-5" value="User" style="shape=umlActor;verticalLabelPosition=bottom;verticalAlign=top;html=1;" vertex="1" parent="1">
          <mxGeometry x="120" y="70" width="30" height="60" as="geometry" />
        </mxCell>
        <mxCell id="s-OvUWTf_hIzMa2GPE4v-7" value="" style="endArrow=classic;html=1;rounded=0;" edge="1" parent="1">
          <mxGeometry width="50" height="50" relative="1" as="geometry">
            <mxPoint x="290" y="170" as="sourcePoint" />
            <mxPoint x="140" y="170" as="targetPoint" />
          </mxGeometry>
        </mxCell>
        <mxCell id="s-OvUWTf_hIzMa2GPE4v-8" value="Login page" style="edgeLabel;html=1;align=center;verticalAlign=middle;resizable=0;points=[];" vertex="1" connectable="0" parent="s-OvUWTf_hIzMa2GPE4v-7">
          <mxGeometry x="0.6667" y="-2" relative="1" as="geometry">
            <mxPoint x="45" as="offset" />
          </mxGeometry>
        </mxCell>
        <mxCell id="s-OvUWTf_hIzMa2GPE4v-9" value="" style="endArrow=classic;html=1;rounded=0;" edge="1" parent="1">
          <mxGeometry width="50" height="50" relative="1" as="geometry">
            <mxPoint x="140" y="190" as="sourcePoint" />
            <mxPoint x="290" y="190" as="targetPoint" />
          </mxGeometry>
        </mxCell>
        <mxCell id="s-OvUWTf_hIzMa2GPE4v-10" value="Usr and pass input" style="edgeLabel;html=1;align=center;verticalAlign=middle;resizable=0;points=[];" vertex="1" connectable="0" parent="s-OvUWTf_hIzMa2GPE4v-9">
          <mxGeometry x="0.6667" y="-2" relative="1" as="geometry">
            <mxPoint x="-55" as="offset" />
          </mxGeometry>
        </mxCell>
        <mxCell id="s-OvUWTf_hIzMa2GPE4v-13" value="" style="endArrow=classic;html=1;rounded=0;" edge="1" parent="1">
          <mxGeometry width="50" height="50" relative="1" as="geometry">
            <mxPoint x="290" y="210" as="sourcePoint" />
            <mxPoint x="480" y="210" as="targetPoint" />
          </mxGeometry>
        </mxCell>
        <mxCell id="s-OvUWTf_hIzMa2GPE4v-14" value="Validation" style="edgeLabel;html=1;align=center;verticalAlign=middle;resizable=0;points=[];" vertex="1" connectable="0" parent="s-OvUWTf_hIzMa2GPE4v-13">
          <mxGeometry x="0.6667" y="-2" relative="1" as="geometry">
            <mxPoint x="-55" as="offset" />
          </mxGeometry>
        </mxCell>
        <mxCell id="s-OvUWTf_hIzMa2GPE4v-15" value="" style="rounded=1;whiteSpace=wrap;html=1;" vertex="1" parent="1">
          <mxGeometry x="70" y="220" width="680" height="140" as="geometry" />
        </mxCell>
        <mxCell id="s-OvUWTf_hIzMa2GPE4v-16" value="" style="endArrow=none;dashed=1;html=1;rounded=0;entryX=0.5;entryY=1;entryDx=0;entryDy=0;" edge="1" parent="1">
          <mxGeometry width="50" height="50" relative="1" as="geometry">
            <mxPoint x="479.5" y="360" as="sourcePoint" />
            <mxPoint x="479.5" y="130" as="targetPoint" />
          </mxGeometry>
        </mxCell>
        <mxCell id="s-OvUWTf_hIzMa2GPE4v-17" value="" style="endArrow=none;dashed=1;html=1;rounded=0;entryX=0.5;entryY=1;entryDx=0;entryDy=0;" edge="1" parent="1">
          <mxGeometry width="50" height="50" relative="1" as="geometry">
            <mxPoint x="669.5" y="360" as="sourcePoint" />
            <mxPoint x="669.5" y="130" as="targetPoint" />
          </mxGeometry>
        </mxCell>
        <mxCell id="s-OvUWTf_hIzMa2GPE4v-18" value="" style="endArrow=none;dashed=1;html=1;rounded=0;entryX=0.5;entryY=1;entryDx=0;entryDy=0;" edge="1" parent="1">
          <mxGeometry width="50" height="50" relative="1" as="geometry">
            <mxPoint x="289.5" y="360" as="sourcePoint" />
            <mxPoint x="289.5" y="130" as="targetPoint" />
          </mxGeometry>
        </mxCell>
        <mxCell id="s-OvUWTf_hIzMa2GPE4v-19" value="" style="endArrow=none;dashed=1;html=1;rounded=0;" edge="1" parent="1">
          <mxGeometry width="50" height="50" relative="1" as="geometry">
            <mxPoint x="135" y="360" as="sourcePoint" />
            <mxPoint x="134.5" y="140" as="targetPoint" />
          </mxGeometry>
        </mxCell>
        <mxCell id="s-OvUWTf_hIzMa2GPE4v-20" value="" style="endArrow=classic;html=1;rounded=0;" edge="1" parent="1">
          <mxGeometry width="50" height="50" relative="1" as="geometry">
            <mxPoint x="480" y="250" as="sourcePoint" />
            <mxPoint x="670" y="250" as="targetPoint" />
          </mxGeometry>
        </mxCell>
        <mxCell id="s-OvUWTf_hIzMa2GPE4v-21" value="Valid" style="edgeLabel;html=1;align=center;verticalAlign=middle;resizable=0;points=[];" vertex="1" connectable="0" parent="s-OvUWTf_hIzMa2GPE4v-20">
          <mxGeometry x="0.6667" y="-2" relative="1" as="geometry">
            <mxPoint x="-55" as="offset" />
          </mxGeometry>
        </mxCell>
        <mxCell id="s-OvUWTf_hIzMa2GPE4v-22" value="" style="endArrow=none;dashed=1;html=1;rounded=0;exitX=0;exitY=0.5;exitDx=0;exitDy=0;entryX=1;entryY=0.5;entryDx=0;entryDy=0;" edge="1" parent="1" source="s-OvUWTf_hIzMa2GPE4v-15" target="s-OvUWTf_hIzMa2GPE4v-15">
          <mxGeometry width="50" height="50" relative="1" as="geometry">
            <mxPoint x="390" y="330" as="sourcePoint" />
            <mxPoint x="440" y="280" as="targetPoint" />
          </mxGeometry>
        </mxCell>
        <mxCell id="s-OvUWTf_hIzMa2GPE4v-23" value="if valid" style="rounded=0;whiteSpace=wrap;html=1;" vertex="1" parent="1">
          <mxGeometry x="80" y="240" width="40" height="30" as="geometry" />
        </mxCell>
        <mxCell id="s-OvUWTf_hIzMa2GPE4v-24" value="else" style="rounded=0;whiteSpace=wrap;html=1;" vertex="1" parent="1">
          <mxGeometry x="80" y="310" width="40" height="30" as="geometry" />
        </mxCell>
        <mxCell id="s-OvUWTf_hIzMa2GPE4v-25" value="" style="endArrow=classic;html=1;rounded=0;" edge="1" parent="1">
          <mxGeometry width="50" height="50" relative="1" as="geometry">
            <mxPoint x="480" y="310" as="sourcePoint" />
            <mxPoint x="290" y="310" as="targetPoint" />
          </mxGeometry>
        </mxCell>
        <mxCell id="s-OvUWTf_hIzMa2GPE4v-26" value="not valid" style="edgeLabel;html=1;align=center;verticalAlign=middle;resizable=0;points=[];" vertex="1" connectable="0" parent="s-OvUWTf_hIzMa2GPE4v-25">
          <mxGeometry x="-0.1474" y="1" relative="1" as="geometry">
            <mxPoint as="offset" />
          </mxGeometry>
        </mxCell>
        <mxCell id="s-OvUWTf_hIzMa2GPE4v-27" value="" style="endArrow=classic;html=1;rounded=0;" edge="1" parent="1">
          <mxGeometry width="50" height="50" relative="1" as="geometry">
            <mxPoint x="290" y="330" as="sourcePoint" />
            <mxPoint x="130" y="330" as="targetPoint" />
          </mxGeometry>
        </mxCell>
        <mxCell id="s-OvUWTf_hIzMa2GPE4v-28" value="re-enter" style="edgeLabel;html=1;align=center;verticalAlign=middle;resizable=0;points=[];" vertex="1" connectable="0" parent="s-OvUWTf_hIzMa2GPE4v-27">
          <mxGeometry x="-0.1474" y="1" relative="1" as="geometry">
            <mxPoint as="offset" />
          </mxGeometry>
        </mxCell>
      </root>
    </mxGraphModel>
  </diagram>
</mxfile>
